PathFileType	4	(X/Y/Z)	C:/Users/opensim2020/Desktop/walking_exp_matlab/subject03_walking10_straight_02.trc	
DataRate	CameraRate	NumFrames	NumMarkers	Units	OrigDataRate	OrigDataStartFrame	OrigNumFrames	
100.00	100.00	4	45	mm	100.00	1858	347	
Frame#	Time	LFHD			RFHD			LBHD			RBHD			C7			T10			CLAV			STRN			RBAK			LSHO			LUPA			LELB			LFRM			LWRA			LWRB			LFIN			RSHO			RUPA			RELB			RFRM			RWRA			RWRB			RFIN			LASI			RASI			LPSI			RPSI			LTHI			LKNE			LTIB			LANK			LHEE			LTOE			RTHI			RKNE			RTIB			RANK			RHEE			RTOE			*39			*40			*41			*42			*43			*44			
		X1	Y1	Z1	X2	Y2	Z2	X3	Y3	Z3	X4	Y4	Z4	X5	Y5	Z5	X6	Y6	Z6	X7	Y7	Z7	X8	Y8	Z8	X9	Y9	Z9	X10	Y10	Z10	X11	Y11	Z11	X12	Y12	Z12	X13	Y13	Z13	X14	Y14	Z14	X15	Y15	Z15	X16	Y16	Z16	X17	Y17	Z17	X18	Y18	Z18	X19	Y19	Z19	X20	Y20	Z20	X21	Y21	Z21	X22	Y22	Z22	X23	Y23	Z23	X24	Y24	Z24	X25	Y25	Z25	X26	Y26	Z26	X27	Y27	Z27	X28	Y28	Z28	X29	Y29	Z29	X30	Y30	Z30	X31	Y31	Z31	X32	Y32	Z32	X33	Y33	Z33	X34	Y34	Z34	X35	Y35	Z35	X36	Y36	Z36	X37	Y37	Z37	X38	Y38	Z38	X39	Y39	Z39	X40	Y40	Z40	X41	Y41	Z41	X42	Y42	Z42	X43	Y43	Z43	X44	Y44	Z44	X45	Y45	Z45	

44	0.430	-918.97107	819.87659	1591.14404	-1051.62390	824.11987	1598.55640	-918.97437	954.37988	1571.14502	-1050.07349	953.18439	1577.09351	-982.37598	1007.35577	1406.93982	-989.42670	1048.24084	1091.96265	-981.30780	889.37323	1324.64270	-981.48364	848.52026	1159.95032	-1083.65247	1065.11914	1232.28088	-824.30304	939.82794	1358.61572	-765.85028	972.77655	1157.93262	-761.15662	981.43304	1033.71680	-765.86768	965.69141	904.22931	-802.33075	950.73187	787.58551	-754.94714	980.95526	790.93134	-769.51379	969.94958	707.68768	-1141.53296	928.51660	1350.25500	-1212.40186	901.07074	1129.71948	-1222.11157	866.48773	1022.09491	-1214.21375	818.43274	894.19702	-1169.98657	769.54126	812.19244	-1215.11926	794.78015	796.70129	-1197.85132	754.93793	735.53333	-881.09106	880.62024	925.65295	-1118.14355	891.03064	923.73840	-920.60590	1045.72742	948.65344	-1071.10864	1049.16699	959.34528	-837.66138	881.21167	628.59436	-880.38757	832.90106	459.45120	-875.23077	828.68695	269.34378	-907.21906	779.97070	63.72533	-946.57343	814.48151	28.49187	-933.72729	627.06848	36.78954	-1150.23621	991.77002	635.12518	-1114.89893	1016.22882	456.37372	-1113.45752	1123.98962	293.41376	-1062.81482	1227.55420	103.14425	-1011.76709	1278.67505	86.59197	-1048.49365	1102.13159	30.19193	-968.90588	891.22992	1664.80762															 
45	0.440	-918.13635	811.90753	1592.42542	-1050.80615	816.68445	1599.77002	-917.59540	946.36090	1572.12170	-1048.65112	945.70215	1577.98572	-980.28540	999.28040	1407.92285	-988.11584	1039.82129	1092.98193	-980.32544	881.21497	1325.77014	-981.08325	840.03516	1161.24023	-1081.30896	1057.61792	1233.24939	-822.90405	930.30750	1359.30676	-764.78943	962.41528	1158.37317	-760.66760	971.08856	1034.11475	-765.81946	956.67273	904.45746	-802.22662	942.33380	787.89044	-754.85150	972.91394	791.28937	-770.12708	963.70001	707.79773	-1140.25232	921.68408	1351.70276	-1211.05420	895.34222	1130.92334	-1220.79333	861.19397	1023.12372	-1213.37158	813.93591	894.88220	-1169.62170	765.28857	812.48926	-1214.56433	791.00146	797.23193	-1197.62781	751.28998	735.87555	-880.81964	871.48883	927.28186	-1117.55200	882.90308	924.35736	-919.85718	1036.89575	950.58740	-1070.33350	1040.75073	960.24493	-838.08832	874.03503	630.42749	-880.14240	827.40222	460.37872	-874.65247	824.72601	269.79739	-907.50336	779.35541	63.82816	-946.67914	814.03491	28.84087	-932.65448	625.83899	35.78085	-1149.69165	983.77435	635.51398	-1114.77039	1008.27893	456.83798	-1113.35400	1118.52820	295.31805	-1063.06213	1224.94128	106.71391	-1011.84479	1276.29993	91.40182	-1048.52209	1101.73584	30.16135	-967.14105	883.82605	1665.62415															 
46	0.450	-917.33661	803.87103	1593.85168	-1049.94653	809.26587	1601.09619	-916.15887	938.35553	1573.33948	-1047.26270	938.22302	1579.05225	-978.22272	991.33307	1409.12793	-986.91302	1031.36523	1094.06067	-979.24518	873.03064	1327.08081	-980.66437	831.58966	1162.60559	-1079.08704	1050.02771	1234.39587	-821.55737	920.83661	1360.25732	-763.68146	951.90405	1159.06067	-760.13458	960.56061	1034.76099	-765.68384	947.23157	905.03247	-802.52289	934.87311	788.24042	-754.54480	964.45178	791.94653	-770.51434	957.02448	708.18286	-1138.93762	914.73914	1353.40991	-1209.75879	889.50543	1132.37268	-1219.51489	855.84753	1024.41248	-1212.59180	809.55469	895.76202	-1169.30347	761.33295	812.90216	-1214.11230	787.46503	797.90778	-1197.61377	747.85699	736.36865	-880.37793	862.42548	929.11194	-1116.82361	875.36053	925.24359	-919.17487	1028.03247	952.54663	-1069.66162	1032.26721	961.32617	-837.93378	867.30475	632.16797	-879.99017	821.76581	461.65131	-874.16016	821.23242	270.42517	-907.97302	778.60962	63.94463	-946.50482	813.73828	28.97243	-933.44269	625.08521	35.10303	-1149.11768	975.29291	635.96655	-1114.75513	999.60559	457.32846	-1113.35449	1112.57007	297.41254	-1063.32056	1222.13257	110.78603	-1011.74744	1273.52759	96.72063	-1048.56384	1101.21240	30.21392	-961.85760	875.03326	1672.51929															 
47	0.460	-916.51611	795.84369	1595.33887	-1049.09021	801.80194	1602.53540	-914.75189	930.26312	1574.60510	-1045.84534	930.69556	1580.29504	-976.16455	983.39667	1410.36450	-985.78564	1022.92969	1095.31055	-978.34436	864.89886	1328.55176	-980.15558	823.14050	1164.17871	-1077.05994	1042.37781	1235.70569	-820.19202	911.32538	1361.33948	-762.54871	941.37933	1159.89331	-759.57556	949.90839	1035.65710	-765.50507	937.62708	905.83972	-803.14642	927.93054	788.72668	-754.02039	955.52289	792.86774	-770.66138	949.88318	708.81952	-1137.63452	907.76190	1355.30298	-1208.44080	883.63165	1134.04004	-1218.20923	850.49957	1025.88025	-1211.97095	805.36566	896.79871	-1169.17212	757.50244	813.38959	-1213.88159	784.09912	798.73749	-1197.83569	744.56317	736.97192	-879.79059	853.43433	930.95050	-1116.09692	866.33087	926.36945	-918.49982	1019.15149	954.62439	-1069.00916	1023.75952	962.57434	-837.44965	860.69226	633.82990	-879.72968	816.10516	462.82419	-873.88483	818.22650	271.07047	-908.13788	778.12115	64.13313	-946.28021	813.70166	29.04542	-934.92676	624.47290	34.57914	-1148.60767	966.49402	636.49719	-1114.76196	990.21863	457.82016	-1113.34436	1106.20129	299.74539	-1063.26648	1218.82227	115.07890	-1011.47229	1270.16541	102.50584	-1048.55933	1100.59412	30.24817																		 
